<svg width="16" height="16" viewBox="0 0 16 16" fill="none" xmlns="http://www.w3.org/2000/svg"><path d="M4.5514 8.00006C4.5514 8.63519 4.03653 9.15006 3.4014 9.15006C2.76628 9.15006 2.2514 8.63519 2.2514 8.00006C2.2514 7.36493 2.76628 6.85006 3.4014 6.85006C4.03653 6.85006 4.5514 7.36493 4.5514 8.00006Z" fill="currentColor"></path><path d="M9.14754 8.00006C9.14754 8.63519 8.63267 9.15006 7.99754 9.15006C7.36242 9.15006 6.84754 8.63519 6.84754 8.00006C6.84754 7.36493 7.36242 6.85006 7.99754 6.85006C8.63267 6.85006 9.14754 7.36493 9.14754 8.00006Z" fill="currentColor"></path><path d="M13.7486 8.00006C13.7486 8.63519 13.2337 9.15006 12.5986 9.15006C11.9634 9.15006 11.4486 8.63519 11.4486 8.00006C11.4486 7.36493 11.9634 6.85006 12.5986 6.85006C13.2337 6.85006 13.7486 7.36493 13.7486 8.00006Z" fill="currentColor"></path></svg>