<svg width="16" height="16" viewBox="0 0 16 16" fill="none" xmlns="http://www.w3.org/2000/svg"><g clip-path="url(#clip0_1450_63327)"><path d="M14.086 5.51371C13.8717 5.05755 13.5879 4.58548 13.2889 4.18113C13.208 4.07178 13.1596 4.04379 13.0242 4.0306C12.4276 3.9726 11.8244 4.05533 11.2269 3.99726C10.7223 3.94821 10.3132 3.71666 10.0115 3.30924C9.6698 2.84782 9.43967 2.31349 9.09818 1.8524C9.01765 1.7437 8.96799 1.71595 8.83348 1.70287C8.29426 1.6505 7.70396 1.65067 7.1665 1.70287C7.03199 1.71595 6.98233 1.7437 6.9018 1.8524C6.56061 2.31308 6.33019 2.8478 5.98849 3.30924C5.68675 3.71666 5.27768 3.94821 4.7731 3.99726C4.17557 4.05533 3.57233 3.9726 2.97579 4.0306C2.8404 4.04379 2.79201 4.07177 2.71109 4.18113C2.41205 4.58548 2.12829 5.05755 1.91397 5.51371C1.85293 5.64365 1.8528 5.70186 1.91397 5.83195C2.14859 6.33082 2.49741 6.76898 2.73231 7.26859C2.95934 7.75156 2.96035 8.24722 2.73332 8.73049C2.49831 9.23066 2.14885 9.66843 1.91397 10.1681C1.85285 10.2982 1.85293 10.3565 1.91397 10.4864C2.1285 10.9429 2.41179 11.4143 2.71109 11.819C2.79201 11.9283 2.8404 11.9563 2.97579 11.9695C3.57233 12.0275 4.17557 11.9448 4.7731 12.0028C5.27768 12.0519 5.68675 12.2834 5.98849 12.6909C6.33018 13.1523 6.56031 13.6866 6.9018 14.1477C6.98233 14.2564 7.03199 14.2842 7.1665 14.2972C7.70396 14.3494 8.29426 14.3496 8.83348 14.2972C8.96799 14.2842 9.01765 14.2564 9.09818 14.1477C9.43937 13.687 9.66979 13.1523 10.0115 12.6909C10.3132 12.2834 10.7223 12.0519 11.2269 12.0028C11.8243 11.9448 12.4271 12.0276 13.0242 11.9695C13.1596 11.9563 13.208 11.9283 13.2889 11.819C13.589 11.4132 13.8719 10.942 14.086 10.4864C14.1471 10.3565 14.1471 10.2982 14.086 10.1681C13.8512 9.66866 13.5017 9.23067 13.2667 8.73049C13.0396 8.24722 13.0406 7.75156 13.2677 7.26859C13.5026 6.76896 13.8513 6.33112 14.086 5.83195C14.1472 5.70186 14.1471 5.64365 14.086 5.51371ZM15.3034 6.40378C15.0684 6.90364 14.7188 7.34124 14.4841 7.84042C14.423 7.9703 14.423 8.02861 14.4841 8.15866C14.7189 8.65839 15.0684 9.09617 15.3034 9.59632C15.5308 10.0802 15.5307 10.5744 15.3034 11.0582C15.052 11.5933 14.7224 12.1426 14.3699 12.6191C14.0684 13.0266 13.658 13.2591 13.1535 13.3081C12.5565 13.3661 11.9541 13.2836 11.3572 13.3415C11.2227 13.3546 11.173 13.3823 11.0925 13.491C10.751 13.9521 10.5209 14.4864 10.1792 14.9479C9.87822 15.3542 9.46713 15.5869 8.96381 15.6359C8.34002 15.6965 7.66188 15.6967 7.03617 15.6359C6.53285 15.5869 6.12176 15.3542 5.82078 14.9479C5.47905 14.4864 5.24872 13.9518 4.90747 13.491C4.82695 13.3823 4.77728 13.3546 4.64278 13.3415C4.04641 13.2836 3.44367 13.3661 2.84647 13.3081C2.34195 13.2591 1.93158 13.0266 1.63007 12.6191C1.27861 12.1441 0.948392 11.5942 0.69656 11.0582C0.469254 10.5744 0.469218 10.0802 0.69656 9.59632C0.931567 9.09618 1.28124 8.65813 1.51591 8.15866C1.57702 8.02861 1.57696 7.9703 1.51591 7.84042C1.28111 7.341 0.931574 6.90366 0.69656 6.40378C0.469152 5.91997 0.469306 5.42567 0.69656 4.94188C0.94838 4.40592 1.27862 3.85603 1.63007 3.38098C1.93158 2.97354 2.34195 2.741 2.84647 2.69195C3.44347 2.63402 4.04593 2.71654 4.64278 2.65861C4.77728 2.64554 4.82695 2.61779 4.90747 2.50909C5.24898 2.04797 5.47907 1.51367 5.82078 1.05224C6.12176 0.645859 6.53285 0.413172 7.03617 0.364231C7.65996 0.30361 8.3381 0.303423 8.96381 0.364231C9.46713 0.413172 9.87822 0.645859 10.1792 1.05224C10.5209 1.5137 10.7513 2.04834 11.0925 2.50909C11.173 2.61779 11.2227 2.64554 11.3572 2.65861C11.9541 2.71654 12.5565 2.63402 13.1535 2.69195C13.658 2.741 14.0684 2.97354 14.3699 3.38098C14.7214 3.85603 15.0516 4.40592 15.3034 4.94188C15.5307 5.42567 15.5308 5.91997 15.3034 6.40378Z" fill="currentColor"></path><path d="M9.13758 8.00005C9.13758 7.37155 8.62849 6.86245 7.99999 6.86245C7.37149 6.86245 6.8624 7.37155 6.8624 8.00005C6.8624 8.62855 7.37149 9.13764 7.99999 9.13764C8.62849 9.13764 9.13758 8.62855 9.13758 8.00005ZM10.4833 8.00005C10.4833 9.37132 9.37126 10.4834 7.99999 10.4834C6.62872 10.4834 5.51668 9.37132 5.51668 8.00005C5.51668 6.62878 6.62872 5.51674 7.99999 5.51674C9.37126 5.51674 10.4833 6.62878 10.4833 8.00005Z" fill="currentColor"></path></g><defs><clipPath id="clip0_1450_63327"><rect width="16" height="16" fill="currentColor"></rect></clipPath></defs></svg>