<svg width="16" height="16" viewBox="0 0 16 16" fill="none" xmlns="http://www.w3.org/2000/svg"><path d="M11.3496 8.00006C11.3496 6.14991 9.85015 4.65045 8 4.65045C6.14985 4.65045 4.65039 6.14991 4.65039 8.00006C4.65039 9.85021 6.14985 11.3497 8 11.3497C9.85015 11.3497 11.3496 9.85021 11.3496 8.00006ZM12.6504 8.00006C12.6504 10.5682 10.5681 12.6505 8 12.6505C5.43188 12.6505 3.34961 10.5682 3.34961 8.00006C3.34961 5.43194 5.43188 3.34967 8 3.34967C10.5681 3.34967 12.6504 5.43194 12.6504 8.00006Z" fill="currentColor"></path><path d="M8.65039 0.500061V2.50006H7.34961V0.500061H8.65039Z" fill="currentColor"></path><path d="M8.65039 13.5001V15.5001H7.34961V13.5001H8.65039Z" fill="currentColor"></path><path d="M3.15808 2.24041L4.57229 3.65462L3.6525 4.57441L2.23829 3.1602L3.15808 2.24041Z" fill="currentColor"></path><path d="M12.3505 11.4328L13.7647 12.847L12.8449 13.7668L11.4307 12.3526L12.3505 11.4328Z" fill="currentColor"></path><path d="M2.24537 12.847L3.65958 11.4328L4.57937 12.3526L3.16516 13.7668L2.24537 12.847Z" fill="currentColor"></path><path d="M11.4377 3.65461L12.852 2.24039L13.7718 3.16018L12.3575 4.5744L11.4377 3.65461Z" fill="currentColor"></path><path d="M0.5 7.35468H2.5V8.65546H0.5L0.5 7.35468Z" fill="currentColor"></path><path d="M13.5 7.35468H15.5V8.65546H13.5V7.35468Z" fill="currentColor"></path></svg>