<svg width="16" height="16" viewBox="0 0 16 16" fill="none" xmlns="http://www.w3.org/2000/svg"><path d="M13.2764 9.52331C12.5607 9.97761 11.7177 10.2421 10.7812 10.2421C8.11386 10.242 5.95042 8.08003 5.9502 5.41296C5.9502 4.48135 6.21453 3.61078 6.67188 2.87292C4.30332 3.46586 2.54992 5.60852 2.5498 8.161C2.5498 11.1713 4.99103 13.6102 8 13.6102C10.5383 13.6102 12.6709 11.8725 13.2764 9.52331ZM7.05078 5.41296C7.051 7.47231 8.72116 9.14237 10.7812 9.14245C11.9248 9.14245 12.887 8.63404 13.5781 7.80846C13.7266 7.63113 13.9701 7.56554 14.1875 7.6444C14.4049 7.72336 14.5497 7.92976 14.5498 8.161C14.5498 11.7767 11.6161 14.7098 8 14.7098C4.38402 14.7098 1.4502 11.7793 1.4502 8.161C1.45033 4.54329 4.3812 1.61022 8 1.61022C8.23027 1.61022 8.43585 1.75359 8.51562 1.9696C8.59536 2.18561 8.53241 2.42836 8.35742 2.578C7.55573 3.26317 7.05078 4.27883 7.05078 5.41296Z" fill="currentColor"></path></svg>