<svg width="16" height="16" viewBox="0 0 16 16" fill="none" xmlns="http://www.w3.org/2000/svg"><path d="M13.5143 1.27702C14.2174 1.06213 14.9481 1.62463 14.8845 2.38828L13.9796 13.2498C13.9146 14.027 13.0644 14.4739 12.3871 14.0872L9.1377 12.2299L6.96777 14.5149L6.94198 14.5427L6.91221 14.5675C6.34985 15.0361 5.49574 14.6366 5.49536 13.9047V9.93392C5.49547 9.65115 5.60796 9.37981 5.8079 9.17985L11.1965 3.79025L2.8204 7.65584L4.6887 8.40296L4.19856 9.62931L1.8044 8.67184V8.66887C0.923102 8.34156 0.865497 7.10381 1.73097 6.70432L13.3744 1.3306L13.5143 1.27702ZM6.81696 12.7547L7.956 11.5552L6.81696 10.9043V12.7547ZM7.23368 9.62138L12.6957 12.7418L13.4756 3.37948L7.23368 9.62138Z" fill="currentColor"></path></svg>