<svg width="16" height="16" viewBox="0 0 16 16" fill="none" xmlns="http://www.w3.org/2000/svg"><path d="M5.16437 2.61478C4.54669 2.61478 4.12855 2.61478 3.80695 2.6431C3.49459 2.67065 3.33999 2.72105 3.23468 2.77982C3.02433 2.89726 2.85016 3.07043 2.73273 3.28079C2.67397 3.38612 2.62453 3.54066 2.59699 3.85306C2.56863 4.17469 2.56769 4.59266 2.56769 5.21048L2.56769 10.7896C2.56769 11.4074 2.56864 11.8254 2.59699 12.147C2.62453 12.4594 2.67397 12.6139 2.73273 12.7193C2.85016 12.9296 3.02433 13.1028 3.23468 13.2202C3.33998 13.279 3.49459 13.3294 3.80695 13.357C4.12855 13.3853 4.54669 13.3853 5.16437 13.3853V14.7857C4.57158 14.7857 4.08124 14.7865 3.6839 14.7515C3.27733 14.7156 2.90105 14.6377 2.55206 14.4429C2.11511 14.1989 1.75397 13.8379 1.51007 13.4009C1.31552 13.0521 1.23829 12.6764 1.20246 12.2701C1.16743 11.8727 1.16828 11.3825 1.16828 10.7896L1.16828 5.21048C1.16828 4.61763 1.16743 4.12736 1.20246 3.73001C1.23829 3.32363 1.31551 2.948 1.51007 2.59915C1.75398 2.16214 2.1151 1.80113 2.55207 1.55716C2.90105 1.36239 3.27733 1.28442 3.6839 1.24857C4.08124 1.21356 4.57158 1.21439 5.16437 1.21439L5.16437 2.61478Z" fill="currentColor"></path><path d="M14.8109 7.73392C14.8387 7.91008 14.8388 8.08998 14.8109 8.26615C14.7585 8.59627 14.5985 8.8555 14.4222 9.07474C14.254 9.28376 14.0229 9.5141 13.7689 9.7681L10.4769 13.0591L9.48664 12.0689L12.7786 8.77786C12.8053 8.7512 12.8311 8.72543 12.8558 8.70072H4.91144V7.30033H12.8568C12.8317 7.27526 12.8057 7.24926 12.7786 7.2222L9.48664 3.93118L10.4769 2.94095L13.7689 6.23197C14.023 6.48608 14.254 6.71623 14.4222 6.92533C14.5985 7.14457 14.7585 7.40378 14.8109 7.73392Z" fill="currentColor"></path></svg>