<svg width="16" height="16" viewBox="0 0 16 16" fill="none" xmlns="http://www.w3.org/2000/svg"><path d="M7.92142 0.349213C10.3745 0.349295 12.5564 1.50526 13.9558 3.299L15.1282 2.12765C15.3304 1.92552 15.6768 2.06949 15.6768 2.35544V5.53929C15.6766 5.71632 15.533 5.85982 15.356 5.86008H12.1711C11.8855 5.85976 11.7427 5.51471 11.9443 5.31255L12.9642 4.29062C11.8238 2.74311 9.98914 1.74112 7.92142 1.74104C4.46442 1.74104 1.66239 4.54307 1.66239 8.00006C1.66239 11.4571 4.46442 14.2591 7.92142 14.2591C11.3783 14.2589 14.1804 11.457 14.1804 8.00006H15.5723C15.5723 12.2252 12.1465 15.6508 7.92142 15.6509C3.6962 15.6509 0.270569 12.2253 0.270569 8.00006C0.270569 3.77485 3.6962 0.349213 7.92142 0.349213Z" fill="currentColor"></path></svg>